HIERARCHY
ROOT Hips
{
  OFFSET 0 0 0
  CHANNELS 6 Xposition Yposition Zposition Zrotation Yrotation Xrotation
  JOINT LeftThigh
  {
    OFFSET 8.409438 0 -5.917753
    CHANNELS 3 Zrotation Yrotation Xrotation
    JOINT LeftLeg
    {
      OFFSET 0 0 -42.358652
      CHANNELS 3 Zrotation Yrotation Xrotation
      JOINT LeftFoot
      {
        OFFSET 0 0 -39.357303
        CHANNELS 3 Zrotation Yrotation Xrotation
      }
    }
  }
  JOINT RightThigh
  {
    OFFSET -8.409438 0 -5.917753
    CHANNELS 3 Zrotation Yrotation Xrotation
    JOINT RightLeg
    {
      OFFSET 0 0 -42.358652
      CHANNELS 3 Zrotation Yrotation Xrotation
      JOINT RightFoot
      {
        OFFSET 0 0 -39.357303
        CHANNELS 3 Zrotation Yrotation Xrotation
      }
    }
  }
  JOINT SpineLow
  {
    OFFSET 0 0 4.719101
    CHANNELS 3 Zrotation Yrotation Xrotation
    JOINT SpineMid
    {
      OFFSET 0 0 12.899191
      CHANNELS 3 Zrotation Yrotation Xrotation
      JOINT Chest
      {
        OFFSET 0 0 12.899191
        CHANNELS 3 Zrotation Yrotation Xrotation
        JOINT LeftShoulder
        {
          OFFSET 7.550562 1.41573 9.438202
          CHANNELS 3 Zrotation Yrotation Xrotation
          JOINT LeftArm
          {
            OFFSET 9.155056 0 4.247191
            CHANNELS 3 Zrotation Yrotation Xrotation
            JOINT LeftForearm
            {
              OFFSET 0 0 25.771955
              CHANNELS 3 Zrotation Yrotation Xrotation
              JOINT LeftHand
              {
                OFFSET 0 0 25.197169
                CHANNELS 3 Zrotation Yrotation Xrotation
              }
            }
          }
        }
        JOINT RightShoulder
        {
          OFFSET -7.550562 1.41573 9.438202
          CHANNELS 3 Zrotation Yrotation Xrotation
          JOINT RightArm
          {
            OFFSET -9.155056 0 4.247191
            CHANNELS 3 Zrotation Yrotation Xrotation
            JOINT RightForearm
            {
              OFFSET 0 0 -25.771955
              CHANNELS 3 Zrotation Yrotation Xrotation
              JOINT RightHand
              {
                OFFSET 0 0 -25.197169
                CHANNELS 3 Zrotation Yrotation Xrotation
              }
            }
          }
        }
        JOINT Neck
        {
          OFFSET 0 0 15.101124
          CHANNELS 3 Zrotation Yrotation Xrotation
          JOINT Head
          {
            OFFSET 0 0 11.325843
            CHANNELS 3 Zrotation Yrotation Xrotation
            End Site
            {
              OFFSET 0 0 14.157303
            }
          }
        }
      }
    }
  }
}
MOTION
Frames: 11
Frame Time: 0.0
0.0  89.887642  0.0  19.162071  -20.48888  -121.49539  43.645012  9.409214  -76.942585  -17.384917  30.361421  106.067533  0.387444  0.581567  -2.711945  -3.432869  14.948433  11.882504  12.092991  3.776375  18.594476  8.863657  3.024158  1.833751  1.207527  0.069044  2.302546  3.303786  0.073606  6.295425  3.303786  0.073606  6.295425  -2.988481  25.206214  20.480236  -164.081708  52.198935  -144.339216  -34.771539  -10.313562  81.126079  71.808421  19.487083  35.162211  -0.798213  3.405423  22.756644  88.876492  52.36063  18.186805  -31.195826  11.898986  -57.25321  70.80202  13.268017  -82.966125  -3.325817  8.329306  2.036341  -2.517908  6.236225  1.570221  
0.0  89.887642  0.0  18.617173  -20.095373  -120.77269  42.998003  9.225887  -76.449823  -17.480365  29.757155  105.915882  0.309624  0.583299  -2.73851  -3.748701  14.678961  11.545495  12.075477  3.452371  18.45361  8.697409  2.959388  1.882069  1.190784  0.050413  2.278998  3.256315  0.025499  6.23016  3.256315  0.025499  6.23016  -3.224195  25.124699  20.299157  -163.358391  51.962714  -143.932647  -34.454593  -11.036602  81.219497  73.817775  20.580907  36.742069  -1.116486  3.415221  22.421922  88.330803  51.916876  18.143829  -31.255099  11.647447  -57.654769  71.423371  13.348564  -83.025724  -3.627399  8.152096  1.826607  -2.740478  6.103574  1.41637  
0.0  89.887642  0.0  17.984197  -19.582546  -119.933237  42.253662  9.086533  -76.049501  -17.53343  29.168947  105.794878  0.251838  0.56188  -2.767338  -4.055471  14.251426  11.235473  11.805157  3.192754  18.270522  8.495873  2.955488  1.894918  1.151084  4.21E-4  2.241199  3.143309  -0.105439  6.124523  3.143309  -0.105439  6.124522  -3.319716  25.267283  20.204139  -162.54409  51.775175  -143.33224  -34.042179  -11.988176  81.410274  75.86502  21.453449  38.216651  -1.770758  3.63583  21.914844  87.976893  51.404828  18.091594  -31.324143  11.490671  -58.006554  71.711193  13.403373  -83.385864  -3.968344  8.093701  1.617283  -2.992855  6.06015  1.263867  
0.0  89.887642  0.0  17.415188  -19.162516  -119.137555  41.685291  8.90414  -75.642569  -17.55348  28.586982  105.630356  0.189344  0.562945  -2.787931  -4.020874  13.714009  11.040112  11.36008  3.097419  18.023237  8.272224  2.929012  1.970638  1.155249  -0.042774  2.200765  3.150874  -0.221823  6.011969  3.150874  -0.221823  6.011968  -3.585093  25.392249  20.074164  -161.67046  51.664674  -142.663498  -33.665905  -13.039535  81.619247  78.078826  22.202688  39.763691  -2.073721  3.772111  21.698339  87.243882  51.034276  17.883493  -31.369127  11.301699  -58.365688  72.006803  13.478471  -83.396273  -4.407711  8.017351  1.46931  -3.319774  6.002849  1.158409  
0.0  89.887642  0.0  16.874952  -18.708657  -118.352289  41.162832  8.70838  -75.185984  -17.521999  27.926289  105.426612  0.083026  0.565536  -2.847444  -4.137086  13.169475  10.71588  10.781039  3.081799  17.808421  8.249203  3.024627  2.076897  1.161465  -0.090301  2.166394  3.163763  -0.350498  5.915764  3.163762  -0.350498  5.915764  -3.596198  25.612339  20.005322  -160.915893  51.560239  -141.835366  -33.282841  -14.178768  81.838469  80.438927  22.841239  41.524205  -2.67352  3.993777  21.305291  86.911625  50.584745  17.791911  -31.502413  11.094627  -58.648036  72.20085  13.392796  -83.602292  -4.847814  7.974029  1.310478  -3.647181  5.970625  1.044962  
0.0  89.887642  0.0  16.365876  -18.181501  -117.577074  40.649576  8.505739  -74.688594  -17.397136  27.303573  105.139467  0.053742  0.576207  -2.870871  -4.042007  12.664625  10.460427  10.221162  3.039254  17.678532  8.009697  3.043969  2.124503  1.166421  -0.123221  2.116741  3.174751  -0.438443  5.778485  3.174751  -0.438443  5.778485  -3.74804  25.800012  19.894821  -160.107064  51.53312  -141.022313  -33.001657  -15.238101  81.986194  82.864167  23.422098  43.426792  -2.906556  4.162773  21.170614  86.301161  50.232387  17.58133  -31.654378  10.822864  -58.860656  72.481669  13.220048  -83.609062  -5.306623  7.929604  1.242116  -3.989811  5.936998  0.99943  
0.0  89.887642  0.0  15.93295  -17.644246  -116.854704  40.218199  8.335556  -74.150894  -17.205219  26.680822  104.82547  -0.009119  0.593965  -2.874789  -4.139789  12.273067  10.07086  9.801118  3.018103  17.581775  7.852072  3.026694  2.209306  1.189936  -0.142852  2.067554  3.237687  -0.491692  5.642944  3.237687  -0.491692  5.642944  -3.738996  25.932655  19.913927  -159.394569  51.448869  -140.115441  -32.679169  -16.244616  82.082366  85.161314  23.829293  45.302664  -3.443275  4.258412  20.927865  86.100985  49.780102  17.575345  -31.868522  10.393332  -59.013639  72.893077  12.914484  -83.675837  -5.72925  7.866836  1.241935  -4.306252  5.889148  1.004252  
0.0  89.887642  0.0  15.521665  -17.056691  -116.060315  39.796829  8.278258  -73.680088  -16.982533  26.158979  104.469756  -0.030792  0.635582  -2.8539  -4.208093  11.906158  9.625883  9.446376  2.956368  17.553421  7.61462  3.034239  2.251437  1.229651  -0.159405  1.995309  3.345419  -0.536631  5.44436  3.345419  -0.536631  5.444361  -3.881675  26.026876  19.930489  -158.795227  51.382778  -139.282533  -32.414282  -17.175758  82.130804  87.35  24.399032  47.12432  -3.760832  4.379492  20.861416  85.569771  49.352683  17.390904  -32.15469  9.912736  -59.135319  73.369052  12.417154  -83.729411  -6.256282  7.826531  1.285261  -4.701456  5.857524  1.043138  
0.0  89.887642  0.0  15.199358  -16.383323  -115.118794  39.352802  8.448796  -73.295348  -16.726759  25.620765  104.107671  -0.133619  0.657666  -2.856568  -4.100499  11.625431  9.210521  8.954653  2.90403  17.410492  7.269529  3.029258  2.234767  1.26423  -0.156988  1.888763  3.441036  -0.527348  5.153015  3.441035  -0.527348  5.153016  -3.840712  26.077028  20.084355  -158.439738  51.35672  -138.515455  -32.251072  -18.081184  82.135867  89.243508  25.013745  48.629847  -4.481658  4.529762  20.565875  85.387904  48.738612  17.317708  -32.319884  9.283995  -59.336912  73.910949  11.77857  -83.688345  -6.63307  7.783601  1.420334  -4.985335  5.823164  1.148713  
0.0  89.887642  0.0  14.902193  -15.767996  -114.289223  39.021545  8.608871  -72.857046  -16.496768  25.134989  103.708526  -0.242807  0.702243  -2.86022  -4.427078  11.450739  8.581786  8.852201  2.837413  17.395639  6.993728  3.023612  2.280952  1.328945  -0.158022  1.816615  3.618387  -0.53127  4.955226  3.618387  -0.53127  4.955226  -3.97596  26.071502  20.10479  -158.275178  51.323785  -137.890452  -32.135168  -18.938017  82.211583  90.866559  25.68155  49.643986  -4.760946  4.656232  20.41858  84.758128  48.199716  17.090623  -32.737726  8.714876  -59.591684  74.562723  11.064369  -83.522906  -7.22745  7.726557  1.417833  -5.43039  5.779175  1.153823  
0.0  89.887642  0.0  14.655531  -15.106599  -113.497213  38.73258  8.860872  -72.396913  -16.261104  24.690417  103.293943  -0.336467  0.740148  -2.84836  -4.616554  11.262911  8.191868  8.768528  2.820728  17.268827  6.725594  2.996515  2.30871  1.352689  -0.155568  1.734685  3.684168  -0.521793  4.731272  3.684168  -0.521793  4.731272  -3.744345  26.075789  20.283302  -158.30927  51.289074  -137.401986  -32.089107  -19.722863  82.351463  92.167927  26.131541  50.049486  -5.390451  4.843256  19.964083  84.140155  47.627456  16.880321  -32.551859  7.938361  -60.105281  75.219793  10.300688  -83.230063  -7.578463  7.703165  1.480302  -5.694041  5.760139  1.20481  
